<?xml version="1.0" encoding="UTF-8"?>
<svg id="Calque_1" data-name="Calque 1" xmlns="http://www.w3.org/2000/svg" viewBox="0 0 1807.02 480.84">
  <defs>
    <style>
      .cls-1 {
        fill: #019597;
      }

      .cls-2 {
        fill: #016a4e;
      }

      .cls-3 {
        fill: #ec1c30;
      }

      .cls-4 {
        fill: #99cb01;
      }

      .cls-5 {
        fill: #787878;
      }
    </style>
  </defs>
  <path class="cls-1" d="M341.1,140.77c3.16-1.53,6.39-2.91,9.46-4.6,30.14-16.62,60.26-33.29,90.39-49.95,1.04-.58,2.09-1.13,3.63-1.97v12.83c0,11.12-.08,22.25,.06,33.37,.03,2.5-.71,4.01-2.84,5.3-25.91,15.67-51.77,31.41-77.63,47.15-1.32,.8-2.5,1.84-3.74,2.77-.92,.28-1.91,.42-2.75,.87-10.29,5.51-20.56,11.06-30.84,16.6-5.66,3.05-11.32,6.1-16.98,9.16-9.46,4.53-18.89,9.14-28.39,13.59-28.32,13.28-56.89,26.02-86.61,35.91-25.9,8.62-52.44,14.07-79.86,13.87-25.46-.18-49.91-4.98-71.86-18.64C12.1,237.71-1.33,209.04,.1,173.13c.55-13.85,6.27-26.25,13.28-38.04,17.18-28.86,41.6-50.03,70.71-66.11,22.07-12.19,45.34-21.23,70.35-25.25,4.67-.75,9.53-1.11,14.22-.68,9.36,.86,16.02,6.33,19.4,14.79,3.92,9.82,6.8,20.04,10.17,30.19-7.55,.8-14.35,1.13-21,2.3-47.02,8.32-87.57,28.69-119.31,64.98-10.21,11.68-18.63,24.54-22.3,39.94-.48,2.01-.85,4.08-.99,6.15-.55,8.1,2.19,14.52,9.4,18.89,9.02,5.46,18.96,7.75,29.25,8.74,26.99,2.58,53.39-1.81,79.77-6.81,35.4-6.7,68.36-20.02,100.41-35.96,13-6.47,25.93-13.08,38.9-19.62,10.84-5.59,21.71-11.11,32.5-16.79,5.49-2.89,10.84-6.05,16.25-9.09Z"/>
  <path class="cls-4" d="M880.69,99.25v23.35c.85-.65,1.36-.89,1.65-1.28,23.76-31.42,64.19-31.38,91.68-14.56,19.89,12.17,31.56,30.42,36.46,52.83,5.59,25.54,4.01,50.59-8.12,74.26-17.5,34.16-57.81,50.17-92.92,37.11-11.18-4.16-20.18-11.32-28.45-20.83v73.41h-49.45V99.25h49.14Zm-.61,82.06c-.06,13.52,1.94,22.46,6.54,30.78,14.43,26.13,49.18,28.84,67.45,5.25,13.04-16.83,13.46-44.66,.95-62.27-14.53-20.47-41.75-23.66-60.18-6.7-10.71,9.85-14.62,22.76-14.77,32.94Z"/>
  <path class="cls-1" d="M1294.57,99.22v23.51c.77-.62,1.25-.87,1.54-1.27,24.44-32.5,66.86-31.44,94.11-13.23,19.13,12.79,30.1,31.08,34.6,53.31,4.82,23.84,3.27,47.21-7.1,69.54-16.66,35.87-58.21,53.33-94.52,39.85-9.6-3.56-16.29-8.41-28.59-20.9v73.49h-49V99.22h48.97Zm-.83,89.71c.78,3.45,1.56,10.61,4.06,17.11,5.92,15.42,17.1,25.33,33.87,27.14,15.95,1.73,28.66-4.79,37.75-17.9,12.04-17.36,11.44-44.09-1.1-61.07-14.63-19.82-42.01-22.51-59.81-5.65-10.47,9.92-14.3,22.69-14.77,40.37Z"/>
  <path class="cls-4" d="M789.08,99.25c.05,.89,.11,1.49,.11,2.1-.03,33.04,.04,66.07-.18,99.11-.07,10.67-1.9,21.17-5.34,31.31-7.31,21.53-22.1,35.09-44.15,40.4-18.73,4.51-37.65,4.54-56.35-.08-25.51-6.31-40.6-23.17-45.97-48.4-2.27-10.67-3.34-21.78-3.42-32.71-.36-46.62-.15-93.24-.15-139.86v-4.78h-21.99c15.34-15.54,30.68-31.09,45.74-46.35,15.41,15.4,30.83,30.81,46.32,46.29h-21.98c-.08,1.59-.21,2.87-.21,4.16-.01,48.58-.04,97.15,.05,145.73,0,4,.35,8.11,1.29,11.99,4.5,18.67,18.89,24.15,34.03,21.95,14.86-2.16,23.62-12.71,24.4-28.95,.42-8.79,.17-17.61,.18-26.42,.02-23.74,0-47.48,0-71.21v-4.27h47.65Z"/>
  <path class="cls-1" d="M1073.87,117.78c-11.7-9.42-23.12-18.62-35.16-28.32,5.07-6.02,9.81-12.03,14.96-17.68,20.98-23.01,47.57-30.94,77.92-28.72,12.98,.95,25.38,3.93,36.7,10.49,21.4,12.4,31.68,31.46,33,55.77,1.42,26.01-8.28,47.66-27.58,64.4-20.22,17.54-41.54,33.81-62.39,50.62-1.71,1.38-3.47,2.7-5.84,4.53h97.89v42.93h-167.29c0-12.83-.09-25.41,.14-37.99,.02-1.3,1.74-2.78,2.99-3.81,20.6-16.94,41.39-33.66,61.84-50.79,12.18-10.2,24.14-20.71,35.64-31.66,7.96-7.57,13.21-17.04,13.73-28.4,1.07-23.46-15.29-33.14-34.13-31.52-13.2,1.13-22.79,8.77-31.47,17.87-3.7,3.88-7.15,7.99-10.96,12.27Z"/>
  <path class="cls-1" d="M1563.23,173.22c1.35-19.56-10.03-32.26-29.82-33.76-16.98-1.28-33.38,1.42-49.37,7.07-1.72,.61-3.45,1.2-5.53,1.92-2.76-8.29-5.48-16.48-8.19-24.66-1.07-3.24-1.87-6.6-3.2-9.73-1.11-2.61-.3-3.6,2.09-4.6,14.28-6.03,29.06-10.16,44.51-11.59,16.38-1.52,32.71-1.67,48.84,2.5,26.71,6.92,41.87,24.35,46.45,51.18,1.12,6.59,1.58,13.37,1.61,20.06,.16,31.93,.07,63.86,.07,95.8,0,1.34,0,2.67,0,4.32h-47.67v-17.71c-3.07,2.73-5.47,5.11-8.11,7.17-15.31,11.97-32.96,15.42-51.87,13.7-13.87-1.26-26.47-5.82-36.71-15.67-11.44-11.01-15.58-24.81-14.97-40.26,.53-13.42,4.76-25.46,14.64-34.94,9.5-9.12,21.29-13.74,34.05-15.86,20.47-3.4,40.68-2.2,60.47,4.31,.8,.26,1.61,.45,2.7,.75Zm-32.03,22.7c-6.53,.05-15.13,.98-22.66,6.01-7.29,4.87-10.34,11.96-9.39,20.52,.94,8.51,6.07,14.14,14.05,16.61,4.58,1.42,9.58,2.1,14.38,2.05,23.62-.27,36.76-13.27,36.66-35.62-.01-2.58-.97-3.59-3.2-4.44-8.9-3.38-18.09-5.04-29.83-5.12Z"/>
  <path class="cls-1" d="M1640.24,312.65c5.56-11.97,10.98-23.65,16.31-35.14,4.95,1.86,9.39,3.97,14.07,5.13,3.59,.9,7.5,.96,11.24,.77,6.22-.31,9.88-4.49,12.28-9.7,.57-1.23-.18-3.29-.77-4.79-21.55-55.28-43.15-110.54-64.74-165.8-.48-1.22-.91-2.45-1.55-4.16h8.85c13.22,0,26.45,.09,39.67-.07,2.78-.03,3.97,.78,4.86,3.45,12.1,36.5,24.33,72.96,36.52,109.42,.38,1.13,.78,2.26,1.56,4.52,12.75-39.72,25.18-78.44,37.63-117.21h50.84c-.22,1.02-.3,1.94-.61,2.77-22.64,60.22-45.26,120.44-68.01,180.62-3.91,10.33-9.01,20.08-16.72,28.21-9.13,9.64-20.7,13.35-33.66,13.9-16.94,.72-32.75-2.83-47.78-11.93Z"/>
  <path class="cls-2" d="M4.4,333.65v-36.42H413.95v36.42H4.4Z"/>
  <path class="cls-2" d="M341.1,140.77c-5.41,3.04-10.76,6.2-16.25,9.09-10.79,5.68-21.66,11.2-32.5,16.79-9.09-22.65-18.19-45.29-27.6-68.73-4.44,9.3-8.68,17.96-12.73,26.72-7.21,15.61-14.7,31.11-21.32,46.98-5.06,12.12-13.79,19.65-25.47,24.74-17.12,7.46-35.01,11.29-54.07,12.54,.5-1.17,.78-2.02,1.19-2.79,27.73-51.73,55.49-103.45,83.15-155.22,1.32-2.47,2.68-3.43,5.58-3.41,18.24,.16,36.48,.13,54.71,.02,2.57-.02,3.76,.76,4.83,3.15,13.1,29.28,26.35,58.5,39.56,87.73,.35,.78,.61,1.59,.92,2.39Z"/>
  <path class="cls-2" d="M309.85,212.29c5.66-3.05,11.32-6.1,16.98-9.16,10.28-5.54,20.55-11.09,30.84-16.6,.83-.45,1.83-.59,2.75-.87,13.83,28.6,27.65,57.2,41.75,86.37-1.64,0-2.69,0-3.74,0-17.12,0-34.25,0-51.37,0-9.14,0-14.19-3.58-17.63-12.06-6.46-15.92-13.05-31.79-19.58-47.68Z"/>
  <path class="cls-3" d="M444.42,22.76c.07,.99,.16,1.67,.16,2.35,0,12.48,.06,24.97-.08,37.45-.01,1.28-.89,3.16-1.94,3.73-23.89,13.1-47.81,26.16-71.85,38.96-3.92,2.09-8.38,3.49-12.76,4.29-6.59,1.21-11.81-1.39-14.53-7.38-3.77-8.3-6.89-16.91-10.49-25.89,13.89,.54,24.34-6.59,35.15-12.31,24.51-12.98,48.8-26.38,73.18-39.61,.94-.51,1.91-.96,3.17-1.59Z"/>
  <path class="cls-1" d="M795.76,447.05h-57.06c.97,9.56,4.82,17.11,13.25,21.22,13.04,6.37,24.43,2.49,34.46-7.13,2.24,2.04,4.4,3.99,6.54,5.93-10.89,13.01-28.77,17.29-44.08,10.72-14.29-6.13-23.05-22.08-21.15-38.45,1.57-13.5,7.39-24.44,20.04-30.37,17.59-8.25,42.68-1.8,47.15,26.92,.56,3.57,.56,7.22,.85,11.16Zm-11.47-8.16c-1.02-14.7-10.18-24.18-23.01-23.94-11.77,.22-21.85,10.94-22.36,23.94h45.37Z"/>
  <path class="cls-1" d="M1031.2,437.28c.61-12.97-5.72-20.24-18.41-21.23-8.49-.66-16.46,1.43-24.55,5.14-1.12-3.04-2.14-5.83-3.29-8.95,13.89-6.12,27.85-8.6,42.11-2.95,9.65,3.83,14.14,12.11,14.44,22.03,.48,15.75,.13,31.52,.13,47.53h-10.08v-10.23c-1.41,1.38-2.2,2.15-2.99,2.91-9.84,9.61-26.31,11.96-38.44,5.34-7.91-4.32-11.87-11.03-11.45-20.13,.4-8.63,4.66-14.78,12.38-18.45,8.23-3.92,17.02-4.2,25.86-3.28,4.72,.49,9.38,1.47,14.29,2.26Zm.07,8.4c-10.32-2.48-20.6-4.57-31.1-1.42-6.79,2.04-10.52,7.02-10.49,13.37,.02,6.14,3.77,10.86,10.4,13.09,17.34,5.85,32.25-5.79,31.19-25.05Z"/>
  <path class="cls-1" d="M1265.73,437.3c.99-12.29-5.39-20.14-17.55-21.05-4.21-.31-8.57,.02-12.74,.77-4.17,.75-8.17,2.37-12.68,3.74-1-2.6-2.06-5.38-3.25-8.49,13.72-6.09,27.54-8.56,41.75-3.13,9.71,3.71,14.45,11.83,14.77,21.78,.52,15.88,.14,31.79,.14,47.94h-10.16v-10.24c-5.39,6.01-11.2,9.9-18.37,11.18-10.45,1.86-20.36,.75-28.39-7-9.54-9.22-7.77-25.69,3.43-32.82,8.96-5.7,18.99-5.9,29.1-4.94,4.6,.44,9.14,1.46,13.96,2.25Zm.04,8.38c-10.26-2.47-20.45-4.52-30.84-1.45-6.77,2-10.67,6.98-10.74,13.24-.07,6.16,3.86,11.06,10.65,13.3,17.47,5.74,32.06-5.86,30.93-25.09Z"/>
  <path class="cls-1" d="M1501.51,405.9c21.33,0,37.22,16.02,37.17,37.45-.04,20.95-16.57,37.43-37.57,37.45-21.01,.02-37.2-16.39-37.17-37.68,.02-21.12,16.28-37.22,37.57-37.22Zm-.57,9.55c-14.93,.04-26.05,11.97-25.9,27.78,.15,15.63,11.5,27.61,26.27,27.74,14.87,.13,26.27-11.78,26.31-27.49,.04-15.85-11.59-28.07-26.69-28.03Z"/>
  <path class="cls-1" d="M1567.34,478.9h-10.86v-71.23h10.79v11.12c1.12-1.25,1.71-1.8,2.17-2.44,8.77-12.1,25.7-12.67,35.82-7.66,9.18,4.54,12.8,12.65,13.94,22.25,.13,1.09,.07,2.2,.07,3.3,0,14.79,0,29.58,0,44.63h-10.9c0-13.85,0-27.54,0-41.22,0-1.59,.04-3.2-.19-4.76-1.73-11.5-9.57-18-20.74-17.26-11.53,.76-19.92,9.49-20.05,21.24-.15,12.6-.03,25.2-.03,37.8v4.24Z"/>
  <path class="cls-1" d="M1075.03,478.96h-10.54v-71.37h10.47v10.44c.35,.23,.71,.46,1.06,.68,.3-.63,.5-1.33,.9-1.89,8.31-11.7,23.15-13.3,34.29-8.94,10.56,4.13,15.33,12.87,15.68,23.6,.51,15.52,.14,31.07,.13,46.61,0,.22-.17,.43-.34,.83h-10.51c0-1.48,0-2.78,0-4.07,0-12.85,.09-25.7-.03-38.55-.1-10.78-5.39-18.08-14.25-20.07-14.84-3.33-26.73,6.51-26.85,22.35-.09,11.99-.02,23.98-.02,35.98,0,1.34,0,2.67,0,4.4Z"/>
  <path class="cls-1" d="M892.75,478.96h-11.12v-86.63h-32.68v-10.11h75.93v9.98h-32.13v86.77Z"/>
  <path class="cls-1" d="M1688.25,414.14c-1.63,2.69-3.14,5.18-4.5,7.43-5.15-1.91-10-4.31-15.14-5.43-3.92-.86-8.29-.65-12.27,.08-4.34,.8-7.38,3.73-7.85,8.53-.47,4.75,2.56,7.28,6.29,8.89,4.25,1.84,8.73,3.11,13.09,4.7,3.78,1.38,7.63,2.63,11.25,4.37,6.22,3,10.4,7.69,10.69,14.99,.32,8.14-2.86,14.51-9.88,18.79-5.43,3.31-11.44,4.09-17.66,3.81-10.33-.47-19.46-4.03-27.87-10.45,1.86-2.63,3.53-4.99,5.45-7.7,1.2,.76,2.28,1.46,3.38,2.14,8.11,5,16.69,8.42,26.38,6.25,2.68-.6,5.48-2.28,7.44-4.24,4.03-4.04,3.41-10.29-1.42-13.3-3.56-2.22-7.7-3.59-11.67-5.1-5.13-1.94-10.49-3.32-15.51-5.51-6.4-2.79-10.39-7.71-10.54-15-.16-7.56,2.83-13.72,9.49-17.42,3.33-1.85,7.23-3.06,11.01-3.68,9.04-1.49,21.87,2.06,29.85,7.86Z"/>
  <path class="cls-1" d="M1143.59,469.8c1.93-2.7,3.61-5.07,5.24-7.34,4.26,2.17,8.15,4.46,12.27,6.18,5.72,2.38,11.82,3.73,17.89,1.86,2.86-.88,5.83-2.72,7.79-4.96,3.46-3.95,2.61-9.68-1.84-12.48-3.56-2.24-7.68-3.64-11.66-5.12-4.12-1.53-8.45-2.47-12.54-4.07-9.86-3.85-14.38-10.16-13.67-18.55,.8-9.54,7.38-16.6,17.48-18.57,11.81-2.29,22.46,.94,33,7.11-1.7,2.84-3.28,5.48-4.96,8.3-6.23-3.82-12.61-6.81-19.72-6.75-3.74,.03-7.93,.84-11.1,2.69-5.88,3.42-5.72,11.06,.23,14.3,4.67,2.54,9.93,3.98,14.93,5.9,3.75,1.44,7.61,2.66,11.24,4.37,6.56,3.08,10.75,8.05,10.85,15.64,.1,8.13-3.29,14.43-10.45,18.46-7.81,4.4-16.2,4.29-24.63,2.6-7.39-1.48-14.13-4.54-20.36-9.56Z"/>
  <path class="cls-1" d="M1359.92,418.76c-2.22,2.35-4.47,4.72-7.05,7.43-7.03-7.56-15.31-12.25-25.96-10.49-6.14,1.01-11.22,4.12-15.08,9.02-9.33,11.83-8.15,29.31,2.58,39.39,10.93,10.27,25.27,8.96,39.39-3.73,2.19,2.03,4.39,4.07,6.56,6.09-7.44,11.44-24.36,16.96-39.09,12.91-15.01-4.13-26.05-17.98-26.75-33.57-.77-17.3,8.63-32.15,23.96-37.85,14.6-5.43,32.35-.87,41.43,10.78Z"/>
  <path class="cls-1" d="M1381.64,416.92h-9.6v-9.45h9.53v-21.76h10.79v21.47h22.57v9.67h-22.48c0,4.42,0,8.42,0,12.42,0,8.92,.24,17.86-.06,26.77-.44,13.58,7.99,15.98,18.1,13.55,1.4-.34,2.75-.89,4.4-1.43,.09,.8,.2,1.35,.21,1.9,.15,8.03-.29,8.8-8.33,9.84-3.57,.46-7.38,.35-10.91-.35-8.41-1.67-13.51-7.22-13.8-15.72-.48-13.92-.32-27.86-.42-41.79-.01-1.56,0-3.13,0-5.11Z"/>
  <path class="cls-5" d="M542.17,282.4c-1.42,0-2.63,.03-3.83,0-.71-.02-1.41-.14-2.3-.24V99.26h6.14v183.14Z"/>
  <path class="cls-1" d="M971.27,406.03v11.6c-7.01,.09-13.38,1.84-18.66,6.48-7.63,6.72-10.15,15.58-10.28,25.33-.11,8.56-.02,17.13-.03,25.69,0,1.19-.11,2.39-.17,3.77h-10.48v-71.24h10.64v15.69c6.93-10.43,15.52-17.54,28.97-17.33Z"/>
  <path class="cls-1" d="M1435.21,407.53h10.44v71.35h-10.44v-71.35Z"/>
  <path class="cls-1" d="M849.78,443.14c-12.36,0-24.34,0-36.32-.01-.71,0-1.42-.17-2.22-.27v-10.91h38.54v11.19Z"/>
  <path class="cls-1" d="M1446.32,391.77h-11.91v-11.86h11.91v11.86Z"/>
</svg>